<?xml version="1.0" standalone="no"?>
<!DOCTYPE svg PUBLIC "-//W3C//DTD SVG 20010904//EN"
 "http://www.w3.org/TR/2001/REC-SVG-20010904/DTD/svg10.dtd">
<svg version="1.0" xmlns="http://www.w3.org/2000/svg"
 width="486.000000pt" height="267.000000pt" viewBox="0 0 486.000000 267.000000"
 preserveAspectRatio="xMidYMid meet">

<g transform="translate(0.000000,267.000000) scale(0.100000,-0.100000)"
fill="#000000" stroke="none">
<path d="M840 1787 c-3 -3 -72 -10 -155 -16 -202 -16 -220 -19 -249 -46 -34
-31 -34 -83 -1 -273 21 -124 24 -161 18 -281 l-6 -139 27 -17 c23 -15 41 -17
126 -11 112 8 112 8 80 -61 -21 -48 -19 -56 6 -18 19 28 30 134 27 257 -3 109
-27 156 -92 178 -22 7 -41 17 -41 22 0 5 9 4 21 -2 11 -7 23 -9 26 -6 3 3 -14
15 -38 26 -30 14 -35 19 -16 15 15 -3 27 -1 27 5 0 5 5 10 10 10 6 0 10 -6 10
-13 0 -7 16 -29 36 -48 20 -18 44 -50 53 -69 24 -46 32 -136 20 -212 -8 -48
-7 -63 3 -69 35 -22 38 -11 38 120 0 76 4 132 10 136 16 10 12 25 -5 19 -19
-8 -19 9 0 46 15 28 14 30 -4 30 -29 0 -45 24 -26 40 12 10 13 16 4 27 -15 17
-12 19 31 26 31 5 32 5 12 -5 -12 -6 -21 -16 -19 -22 2 -6 -3 -16 -11 -22 -8
-6 -12 -16 -8 -22 8 -14 62 -16 70 -3 3 4 28 11 55 15 61 8 71 20 32 37 -19 9
-26 16 -18 21 11 7 67 -20 67 -34 0 -15 -46 -38 -77 -38 -44 0 -79 -18 -92
-47 -17 -37 -4 -42 22 -9 16 19 29 27 42 23 19 -5 19 -5 0 -6 -24 -1 -50 -37
-34 -46 5 -4 21 -4 34 -1 13 3 27 2 30 -4 11 -17 46 -11 71 13 13 12 24 25 24
28 0 4 -19 10 -42 13 -34 6 -39 9 -27 16 20 12 79 -6 79 -23 0 -7 -10 -24 -23
-40 -23 -29 -47 -34 -109 -22 -64 13 -70 0 -68 -139 1 -67 -1 -130 -6 -140 -4
-11 -2 -39 5 -64 6 -25 10 -47 7 -49 -2 -3 -21 1 -40 8 -25 9 -39 10 -47 2 -7
-7 -2 -10 18 -11 15 0 42 -4 59 -7 42 -9 48 4 24 51 -37 71 -33 74 80 74 179
0 198 31 169 274 -9 81 -8 106 10 206 12 63 21 132 21 153 0 53 -26 105 -64
124 -29 15 -175 31 -186 20z m-35 -50 c8 -13 26 -30 40 -37 14 -7 25 -19 25
-25 0 -22 -35 -44 -75 -47 -38 -3 -40 -5 -41 -38 -2 -99 -5 -120 -14 -120 -5
0 -7 26 -3 64 l6 65 -37 15 c-47 19 -46 25 4 19 24 -4 46 -1 54 7 9 6 20 9 26
5 6 -4 22 -4 36 -1 33 9 32 42 -1 50 -14 4 -25 13 -25 21 0 26 -30 33 -78 18
-54 -16 -77 -33 -45 -33 11 0 36 -6 54 -14 29 -12 31 -16 16 -22 -10 -3 -23
-2 -30 5 -6 6 -21 11 -33 11 -12 0 -27 6 -33 14 -10 11 -7 17 11 30 12 9 32
16 43 16 11 0 27 5 35 10 25 16 49 11 65 -13z m-122 -130 c43 -22 46 -36 13
-68 -14 -13 -21 -30 -18 -38 3 -10 -5 -7 -21 8 -15 14 -27 31 -27 40 0 12 3
12 12 3 18 -18 42 -15 56 8 11 18 8 21 -25 36 -21 9 -58 18 -81 19 -42 4 -44
3 -38 -21 5 -18 2 -24 -10 -24 -19 0 49 -50 69 -50 7 0 4 -5 -7 -11 -15 -9
-23 -6 -43 15 -13 14 -28 26 -33 26 -6 0 -10 7 -10 15 0 8 5 15 11 15 6 0 8 9
4 20 -3 11 -3 24 0 30 9 15 103 1 148 -23z m338 13 c25 -14 24 -34 -3 -73 -32
-44 -36 -47 -94 -47 -27 0 -59 -6 -69 -14 -16 -11 -22 -10 -47 12 -31 28 -36
47 -12 56 25 10 41 6 21 -5 -13 -8 -15 -14 -7 -30 14 -26 28 -24 52 6 11 14
27 25 37 25 9 0 22 5 27 10 7 7 11 6 11 -5 0 -8 -8 -15 -18 -15 -22 0 -49 -10
-49 -19 0 -8 78 -13 101 -6 10 4 19 12 19 18 0 7 9 21 21 30 27 23 20 39 -20
50 -24 6 -37 4 -50 -6 -11 -11 -31 -13 -70 -10 -39 4 -55 2 -62 -8 -6 -10 -9
-10 -9 -2 0 21 34 32 83 27 25 -2 49 0 52 6 8 13 61 13 86 0z m-339 -144 c3 3
6 -1 5 -8 -1 -7 9 -34 21 -60 12 -25 24 -61 27 -80 4 -21 -2 -12 -15 25 -12
33 -33 78 -47 100 -15 23 -20 36 -11 30 8 -7 17 -10 20 -7z m-61 -12 c9 -3 22
-17 28 -30 17 -39 13 -41 -16 -7 -26 30 -31 32 -75 26 -34 -4 -48 -10 -51 -24
-7 -26 34 -66 77 -74 20 -4 33 -12 30 -17 -11 -18 -78 3 -105 32 -39 42 -23
109 23 94 10 -3 26 -1 35 5 10 6 23 8 28 6 6 -3 17 -8 26 -11z"/>
<path d="M1383 1760 c-122 -25 -177 -100 -177 -240 0 -168 74 -240 247 -240
102 0 156 24 202 89 29 41 30 47 30 151 0 104 -1 110 -30 152 -51 73 -165 110
-272 88z m136 -135 c24 -23 26 -33 26 -105 0 -72 -2 -82 -26 -105 -14 -14 -42
-28 -62 -32 -32 -5 -41 -1 -72 30 -34 34 -35 38 -35 107 0 69 1 73 35 107 31
31 40 35 72 30 20 -4 48 -18 62 -32z"/>
<path d="M1912 1761 c-107 -19 -161 -123 -106 -206 16 -25 83 -57 166 -80 68
-18 95 -47 74 -80 -7 -11 -26 -21 -41 -23 -49 -6 -75 7 -91 44 -11 25 -20 34
-30 30 -9 -3 -38 -6 -65 -6 -43 0 -49 -3 -49 -20 0 -43 40 -101 83 -121 63
-28 198 -27 257 4 73 37 103 117 71 194 -18 43 -50 63 -155 93 -94 27 -120 47
-97 74 26 32 111 8 111 -31 0 -14 10 -15 66 -10 37 4 69 9 72 12 3 2 -3 23
-13 46 -13 27 -31 47 -55 59 -43 22 -137 32 -198 21z"/>
<path d="M2490 1525 l0 -245 65 0 65 0 0 133 1 132 22 -27 c12 -15 54 -74 92
-132 l70 -105 68 -1 67 0 0 245 0 245 -65 0 -65 0 0 -130 c0 -71 -3 -130 -7
-130 -5 0 -46 59 -93 130 l-85 130 -67 0 -68 0 0 -245z"/>
<path d="M3020 1525 l0 -245 70 0 70 0 0 100 0 100 90 0 90 0 0 50 0 50 -91 0
-90 0 3 43 3 42 108 3 107 3 0 49 0 50 -180 0 -180 0 0 -245z"/>
<path d="M3633 1760 c-119 -25 -177 -103 -178 -240 0 -117 53 -204 143 -231
21 -6 77 -10 125 -8 76 4 90 7 128 34 66 46 89 100 89 204 -1 125 -35 189
-120 225 -47 19 -135 27 -187 16z m136 -135 c24 -23 26 -33 26 -105 0 -73 -2
-82 -27 -107 -39 -38 -97 -38 -135 0 -26 25 -28 33 -28 108 0 79 1 81 34 111
28 25 39 29 69 24 20 -3 47 -17 61 -31z"/>
<path d="M2270 1525 l0 -235 70 0 70 0 0 235 0 235 -70 0 -70 0 0 -235z"/>
<path d="M4020 1520 l0 -240 70 0 70 0 0 100 c0 93 1 100 20 100 29 0 50 -25
98 -118 l43 -82 85 0 86 0 -42 78 c-23 42 -56 91 -74 108 l-33 32 33 15 c92
44 97 189 9 231 -26 13 -69 16 -199 16 l-166 0 0 -240z m261 140 c26 -14 24
-55 -3 -74 -13 -9 -43 -16 -70 -16 l-48 0 0 50 0 50 51 0 c28 0 59 -5 70 -10z"/>
<path d="M1532 1184 c-16 -11 -22 -25 -22 -53 0 -40 10 -54 46 -65 56 -17 92
77 45 116 -28 22 -40 23 -69 2z m66 -16 c7 -7 12 -24 12 -38 0 -52 -61 -71
-82 -25 -23 51 32 101 70 63z"/>
<path d="M2708 1189 c-10 -5 -18 -19 -18 -30 0 -18 8 -23 67 -44 7 -2 10 -11
7 -20 -8 -20 -51 -19 -62 1 -6 11 -12 13 -16 6 -4 -6 4 -18 17 -27 32 -20 77
-5 77 26 0 15 -11 25 -40 36 -22 9 -40 20 -40 25 0 15 32 22 51 10 30 -19 36
-13 10 8 -26 23 -29 23 -53 9z"/>
<path d="M2500 1176 c0 -8 -12 -16 -26 -18 -33 -4 -49 -27 -41 -60 8 -29 26
-39 56 -31 18 5 21 13 21 64 0 33 -2 59 -5 59 -3 0 -5 -6 -5 -14z m-10 -41
c16 -19 3 -55 -20 -55 -23 0 -36 36 -20 55 7 8 16 15 20 15 4 0 13 -7 20 -15z"/>
<path d="M3455 1180 c-3 -5 -1 -10 4 -10 6 0 11 5 11 10 0 6 -2 10 -4 10 -3 0
-8 -4 -11 -10z"/>
<path d="M3730 1170 c0 -13 -5 -18 -15 -14 -23 9 -45 -15 -45 -47 0 -31 22
-49 51 -42 16 5 19 15 19 64 0 33 -2 59 -5 59 -3 0 -5 -9 -5 -20z m-2 -59 c-4
-35 -41 -37 -46 -2 -4 26 13 42 35 34 8 -3 13 -16 11 -32z"/>
<path d="M3923 1130 c0 -36 2 -50 4 -32 2 17 2 47 0 65 -2 17 -4 3 -4 -33z"/>
<path d="M1651 1110 c2 -33 3 -37 6 -15 2 17 14 38 26 47 l22 18 -27 -2 c-26
-2 -28 -5 -27 -48z"/>
<path d="M1710 1135 c-13 -35 3 -65 36 -65 16 0 24 -5 21 -12 -2 -7 -16 -13
-30 -13 -15 1 -27 -3 -27 -8 0 -4 15 -7 33 -5 32 3 32 3 35 63 l3 61 -31 2
c-25 2 -32 -3 -40 -23z m50 0 c17 -20 8 -50 -15 -50 -20 0 -31 25 -21 51 7 18
20 18 36 -1z"/>
<path d="M1817 1154 c-14 -14 -7 -26 8 -14 16 13 45 7 45 -10 0 -5 -11 -10
-24 -10 -13 0 -29 -7 -36 -16 -19 -22 6 -44 43 -37 26 5 28 9 25 47 -3 36 -6
41 -28 44 -14 2 -29 0 -33 -4z m53 -54 c0 -15 -38 -32 -45 -20 -3 5 -3 15 0
20 8 13 45 13 45 0z"/>
<path d="M1912 1111 c1 -44 2 -44 5 -8 2 20 8 38 14 39 29 4 35 0 40 -37 l7
-40 -2 45 c-1 44 -2 45 -33 46 -33 1 -33 1 -31 -45z"/>
<path d="M2013 1115 c0 -27 2 -38 4 -22 2 15 2 37 0 50 -2 12 -4 0 -4 -28z"/>
<path d="M2057 1153 c-16 -15 -6 -41 18 -47 36 -9 32 -30 -5 -22 -16 3 -30 4
-30 1 0 -10 40 -24 54 -19 25 10 19 43 -9 54 -34 13 -33 34 1 26 17 -5 23 -3
19 4 -7 11 -38 14 -48 3z"/>
<path d="M2141 1111 l2 -46 6 40 c4 26 11 40 21 40 10 0 17 -14 21 -40 4 -26
7 -31 8 -14 1 33 26 67 40 54 5 -5 12 -26 14 -45 3 -27 4 -25 3 10 l-1 45 -57
1 -58 1 1 -46z"/>
<path d="M2292 1148 c-17 -17 -15 -54 4 -72 18 -19 20 -19 45 -6 24 13 27 75
3 84 -24 9 -39 7 -52 -6z m46 -7 c21 -13 11 -55 -14 -59 -26 -4 -38 22 -24 49
12 21 18 23 38 10z"/>
<path d="M2542 1148 c-17 -17 -15 -54 4 -72 19 -20 25 -20 50 -1 18 14 17 14
-13 9 -26 -5 -33 -3 -33 10 0 11 9 16 30 16 18 0 30 5 30 13 0 18 -21 37 -40
37 -9 0 -21 -5 -28 -12z m48 -13 c11 -13 8 -15 -14 -15 -25 0 -33 10 -19 23
10 11 19 8 33 -8z"/>
<path d="M2812 1118 c-2 -49 6 -58 45 -50 20 4 23 10 22 51 l-1 46 -10 -42
c-7 -32 -14 -43 -28 -43 -15 0 -20 9 -23 43 l-4 42 -1 -47z"/>
<path d="M2923 1153 c-9 -3 -13 -25 -12 -66 1 -34 4 -52 6 -39 3 13 10 21 16
19 23 -8 47 13 47 41 0 42 -23 59 -57 45z m40 -25 c14 -22 1 -48 -23 -48 -15
0 -20 7 -20 28 0 44 22 54 43 20z"/>
<path d="M3012 1148 c-36 -36 4 -101 48 -78 28 15 25 20 -9 14 -20 -4 -30 -2
-34 10 -5 13 1 16 28 16 22 0 35 5 35 13 0 18 -21 37 -40 37 -9 0 -21 -5 -28
-12z m48 -13 c11 -13 8 -15 -14 -15 -25 0 -33 10 -19 23 10 11 19 8 33 -8z"/>
<path d="M3100 1113 c0 -52 18 -57 22 -6 4 53 34 54 49 2 7 -21 17 -39 23 -39
6 0 18 20 27 45 9 25 13 45 9 45 -5 0 -14 -17 -21 -37 l-13 -38 -14 38 c-13
34 -18 37 -48 35 -33 -2 -34 -3 -34 -45z"/>
<path d="M3253 1115 c0 -27 2 -38 4 -22 2 15 2 37 0 50 -2 12 -4 0 -4 -28z"/>
<path d="M3297 1153 c-14 -14 -6 -34 18 -43 14 -5 25 -13 25 -18 0 -17 -13
-21 -31 -11 -11 5 -19 6 -19 1 0 -14 35 -21 54 -10 25 14 19 35 -15 47 -33 11
-31 36 2 28 11 -3 17 -1 13 4 -6 10 -38 12 -47 2z"/>
<path d="M3383 1115 c0 -27 2 -38 4 -22 2 15 2 37 0 50 -2 12 -4 0 -4 -28z"/>
<path d="M3433 1153 c-20 -7 -16 -71 5 -81 29 -16 62 3 62 36 0 43 -27 62 -67
45z m47 -18 c18 -22 3 -57 -23 -53 -25 3 -34 32 -17 53 16 19 24 19 40 0z"/>
<path d="M3521 1111 c1 -45 1 -45 9 -13 16 67 45 67 53 2 3 -27 4 -25 3 10 -1
44 -2 45 -33 46 -33 1 -33 1 -32 -45z"/>
<path d="M3783 1153 c-7 -2 -13 -20 -13 -38 0 -37 26 -60 54 -49 25 9 19 20
-11 19 -14 0 -28 6 -30 13 -3 8 7 12 31 12 37 0 47 15 24 38 -12 12 -33 14
-55 5z m45 -21 c2 -7 -7 -12 -23 -12 -24 0 -26 2 -15 15 14 17 31 16 38 -3z"/>
<path d="M3967 1154 c-14 -14 -7 -73 9 -82 40 -22 82 28 57 67 -11 17 -54 27
-66 15z m53 -23 c14 -27 2 -53 -24 -49 -36 5 -31 67 6 68 4 0 12 -9 18 -19z"/>
<path d="M4067 1153 c-14 -14 -6 -34 18 -45 14 -6 25 -16 25 -21 0 -5 -11 -7
-25 -5 -27 6 -34 -6 -9 -16 20 -8 56 12 51 27 -2 7 -16 18 -30 25 -31 15 -26
36 5 26 14 -4 18 -2 14 5 -8 12 -39 15 -49 4z"/>
<path d="M1190 935 c0 -37 4 -65 10 -65 6 0 10 14 10 30 0 40 22 39 54 -2 14
-18 27 -30 31 -27 3 3 -4 17 -15 31 -17 22 -17 27 -5 32 20 7 19 52 -1 60 -9
3 -31 6 -50 6 l-34 0 0 -65z m75 42 c24 -18 11 -37 -26 -37 -24 0 -29 4 -29
25 0 28 24 34 55 12z"/>
<path d="M2001 933 c1 -47 3 -59 8 -38 5 24 12 31 36 34 l30 4 -30 6 c-45 9
-42 44 5 52 l35 6 -42 2 -43 1 1 -67z"/>
<path d="M2613 935 c0 -38 2 -53 4 -32 2 20 2 52 0 70 -2 17 -4 1 -4 -38z"/>
<path d="M3080 979 c0 -12 -5 -19 -12 -16 -24 8 -48 -13 -48 -42 0 -33 17 -51
48 -48 20 1 22 6 22 64 0 35 -2 63 -5 63 -3 0 -5 -9 -5 -21z m-2 -61 c-3 -36
-24 -44 -41 -17 -14 23 -2 49 23 49 18 0 21 -5 18 -32z"/>
<path d="M3282 933 c0 -38 3 -54 5 -36 4 27 9 32 36 36 l32 4 -33 1 c-29 2
-33 5 -30 25 2 16 12 24 38 28 l35 6 -42 2 -43 1 2 -67z"/>
<path d="M3841 986 c-17 -21 -3 -45 33 -54 17 -5 32 -15 34 -24 4 -23 -27 -31
-54 -13 -25 16 -33 8 -12 -13 17 -17 54 -15 72 4 22 21 4 53 -35 61 -31 6 -39
30 -14 39 8 4 22 1 30 -6 17 -14 31 -8 20 9 -9 16 -60 14 -74 -3z"/>
<path d="M3993 935 c0 -38 2 -53 4 -32 2 20 2 52 0 70 -2 17 -4 1 -4 -38z"/>
<path d="M2459 976 c-2 -11 -2 -39 0 -63 2 -31 7 -43 19 -43 12 0 13 3 4 12
-16 16 -15 68 1 68 8 0 9 3 1 8 -6 4 -13 14 -16 22 -4 12 -6 11 -9 -4z"/>
<path d="M4308 973 c-7 -33 7 -96 22 -101 12 -4 13 -2 3 9 -15 15 -17 66 -4
71 5 2 4 11 -3 21 -13 17 -14 17 -18 0z"/>
<path d="M1338 959 c-12 -6 -18 -22 -18 -44 0 -29 4 -36 25 -41 24 -6 62 12
50 24 -2 3 -11 0 -18 -7 -23 -18 -46 -3 -43 27 3 30 46 47 46 18 0 -9 5 -16
10 -16 15 0 12 16 -6 34 -18 19 -23 19 -46 5z"/>
<path d="M1438 959 c-12 -6 -18 -22 -18 -44 0 -28 4 -36 24 -41 27 -6 46 1 46
18 0 7 -5 7 -14 -1 -22 -18 -48 -2 -44 28 3 22 8 26 31 24 24 -2 27 0 17 13
-14 16 -19 17 -42 3z"/>
<path d="M1683 963 c-23 -8 -14 -42 12 -49 14 -3 25 -12 25 -20 0 -16 -26 -19
-35 -4 -3 6 -11 10 -17 10 -7 0 -6 -6 2 -15 16 -20 44 -19 61 1 11 14 10 18
-6 30 -10 8 -25 14 -32 14 -7 0 -13 5 -13 11 0 7 10 9 25 7 14 -3 25 -2 25 2
0 10 -31 18 -47 13z"/>
<path d="M1778 963 c-43 -11 -28 -93 17 -93 40 0 59 54 29 84 -16 17 -17 17
-46 9z m40 -42 c4 -26 -13 -42 -35 -34 -14 5 -18 45 -6 57 14 14 38 0 41 -23z"/>
<path d="M1873 963 c-23 -8 -14 -42 12 -49 14 -3 25 -10 25 -14 0 -16 -22 -22
-33 -11 -17 17 -31 13 -17 -4 16 -20 44 -19 61 1 11 14 10 18 -6 30 -10 8 -25
14 -32 14 -7 0 -13 5 -13 11 0 7 10 9 25 7 14 -3 25 -2 25 2 0 10 -31 18 -47
13z"/>
<path d="M3138 959 c-21 -12 -24 -59 -6 -77 16 -16 43 -15 58 3 15 18 -1 20
-18 3 -17 -17 -40 7 -34 37 5 27 42 36 42 10 0 -8 5 -15 10 -15 18 0 11 29 -9
40 -23 12 -22 12 -43 -1z"/>
<path d="M3693 954 c-10 -7 -13 -14 -7 -14 5 0 14 4 20 10 6 6 15 6 24 0 13
-9 13 -11 0 -20 -8 -5 -23 -10 -33 -10 -13 0 -17 -6 -15 -22 2 -19 10 -23 38
-24 l35 -2 -3 43 c-4 48 -27 63 -59 39z m47 -49 c0 -19 -24 -30 -41 -19 -9 5
-7 11 6 21 24 17 35 17 35 -2z"/>
<path d="M4136 957 c-12 -9 -17 -23 -14 -47 3 -31 6 -35 32 -35 17 0 31 6 34
15 4 12 3 13 -10 2 -24 -19 -49 -4 -45 27 4 29 47 45 47 17 0 -9 5 -16 10 -16
15 0 12 16 -6 34 -19 19 -25 20 -48 3z"/>
<path d="M4233 963 c-23 -8 -14 -42 12 -49 14 -3 25 -10 25 -14 0 -16 -22 -22
-33 -11 -17 17 -31 13 -17 -4 16 -20 44 -19 61 1 11 14 10 18 -6 30 -10 8 -25
14 -32 14 -7 0 -13 5 -13 11 0 7 10 9 25 7 14 -3 25 -2 25 2 0 10 -31 18 -47
13z"/>
<path d="M4434 962 c-19 -12 -26 -50 -14 -72 13 -25 60 -24 68 0 4 12 3 13
-10 2 -24 -19 -50 -4 -46 27 2 18 9 26 23 26 11 0 19 -6 18 -12 -2 -7 2 -13 7
-13 18 0 11 29 -9 40 -23 12 -23 12 -37 2z"/>
<path d="M1514 920 c1 -44 2 -45 34 -46 32 -1 32 -1 30 45 -1 35 -2 39 -5 14
-5 -35 -29 -62 -43 -47 -5 5 -11 25 -13 44 -3 27 -4 25 -3 -10z"/>
<path d="M1611 913 l2 -48 6 39 c4 26 13 42 26 47 17 7 16 8 -7 8 -27 1 -28
-1 -27 -46z"/>
<path d="M2106 945 c-18 -47 6 -82 49 -71 23 6 26 11 23 44 -3 33 -6 37 -34
40 -22 2 -33 -2 -38 -13z m62 -24 c3 -21 -11 -40 -30 -41 -13 0 -28 38 -22 55
10 25 48 15 52 -14z"/>
<path d="M2212 913 c1 -40 2 -42 5 -13 2 19 11 41 20 48 15 11 14 12 -5 12
-20 0 -22 -5 -20 -47z"/>
<path d="M2264 934 c-4 -15 -2 -34 3 -43 13 -20 65 -21 71 -1 5 13 3 13 -11 1
-25 -20 -47 -6 -47 29 0 27 3 31 23 28 12 -2 21 -9 20 -16 -2 -6 2 -12 8 -12
6 0 9 8 7 18 -2 11 -14 18 -35 20 -28 3 -33 -1 -39 -24z"/>
<path d="M2364 948 c-8 -12 21 -38 43 -38 7 0 13 -4 13 -9 0 -17 -21 -23 -36
-10 -17 14 -33 4 -17 -12 18 -18 58 -6 61 18 3 17 -3 24 -23 29 -17 4 -24 11
-21 20 6 17 -10 19 -20 2z"/>
<path d="M2405 950 c3 -5 10 -10 16 -10 5 0 9 5 9 10 0 6 -7 10 -16 10 -8 0
-12 -4 -9 -10z"/>
<path d="M2510 952 c0 -5 12 -7 26 -4 35 6 28 -20 -7 -28 -15 -4 -24 -13 -24
-25 0 -16 7 -20 38 -20 l38 -1 -3 41 c-3 37 -5 40 -35 43 -18 2 -33 -1 -33 -6z
m47 -57 c-4 -8 -13 -15 -22 -15 -21 0 -19 28 3 32 22 5 26 2 19 -17z"/>
<path d="M2644 934 c-4 -15 -2 -34 3 -43 14 -22 59 -26 66 -7 4 9 2 16 -2 16
-5 0 -11 -5 -13 -12 -8 -24 -38 1 -38 32 0 27 3 31 23 28 12 -2 21 -9 20 -16
-2 -6 2 -12 8 -12 6 0 9 8 7 18 -2 11 -14 18 -35 20 -28 3 -33 -1 -39 -24z"/>
<path d="M2747 953 c-13 -12 -7 -23 24 -39 23 -12 28 -19 20 -27 -9 -9 -17 -8
-32 2 -18 10 -20 10 -17 -1 3 -7 18 -13 34 -13 22 0 30 5 32 21 2 16 -4 23
-23 28 -18 5 -25 12 -21 21 5 15 -5 20 -17 8z"/>
<path d="M2785 950 c3 -5 11 -10 16 -10 6 0 7 5 4 10 -3 6 -11 10 -16 10 -6 0
-7 -4 -4 -10z"/>
<path d="M2885 943 c28 -69 28 -76 10 -90 -17 -12 -17 -13 -1 -13 18 0 40 42
50 96 6 28 5 27 -11 -6 l-16 -35 -10 33 c-5 17 -14 32 -20 32 -5 0 -6 -8 -2
-17z"/>
<path d="M3385 950 c-4 -6 6 -7 25 -4 19 4 30 2 30 -5 0 -6 -14 -14 -31 -18
-23 -4 -29 -10 -27 -27 2 -17 11 -21 41 -23 30 -1 37 2 33 14 -3 8 -6 28 -6
44 0 25 -4 29 -29 29 -17 0 -33 -4 -36 -10z m55 -45 c0 -19 -24 -30 -41 -19
-9 5 -7 11 6 21 24 17 35 17 35 -2z"/>
<path d="M3483 920 c2 -44 3 -45 35 -46 32 -1 32 -1 31 45 l-2 46 -6 -40 c-7
-46 -37 -62 -45 -23 -13 58 -14 60 -13 18z"/>
<path d="M3581 913 c1 -27 3 -39 6 -28 2 11 6 30 9 43 3 13 12 22 24 22 15 0
20 -9 23 -42 l4 -43 1 48 2 47 -35 0 -35 0 1 -47z"/>
<path d="M3953 915 c0 -27 2 -38 4 -22 2 15 2 37 0 50 -2 12 -4 0 -4 -28z"/>
<path d="M4039 915 c9 -25 19 -45 22 -45 4 0 12 12 17 28 5 15 13 35 17 45 4
9 3 17 -2 17 -6 0 -15 -15 -20 -32 l-10 -33 -13 33 c-6 17 -15 32 -20 32 -4 0
0 -20 9 -45z"/>
<path d="M4362 913 c1 -40 2 -42 5 -13 2 19 11 41 20 48 15 11 14 12 -5 12
-20 0 -22 -5 -20 -47z"/>
</g>
</svg>
